Normalized EMG Linear Envelopes
nRows=95
nColumns=4

endheader
time	 med_gas_r	  soleus_r	 tib_ant_r	
14.4042	  0.062929	  0.276301	  0.075529	
14.4375	  0.060159	  0.274020	  0.075761	
14.4708	  0.058385	  0.275122	  0.074652	
14.504	  0.058037	  0.279344	  0.072419	
14.5373	  0.059018	  0.285122	  0.069654	
14.5706	  0.060779	  0.289987	  0.066714	
14.6038	  0.062317	  0.293662	  0.063737	
14.6371	  0.062869	  0.297009	  0.060943	
14.6704	  0.063211	  0.300880	  0.058594	
14.7036	  0.064185	  0.305407	  0.056791	
14.7369	  0.066282	  0.310239	  0.055681	
14.7702	  0.069347	  0.315285	  0.055063	
14.8034	  0.072796	  0.320094	  0.054800	
14.8367	  0.075348	  0.324026	  0.054947	
14.87	  0.075547	  0.325020	  0.055398	
14.9032	  0.073303	  0.321935	  0.055902	
14.9365	  0.069683	  0.315476	  0.056284	
14.9698	  0.065766	  0.307352	  0.056511	
15.003	  0.062094	  0.299916	  0.056763	
15.0363	  0.058785	  0.294336	  0.057204	
15.0696	  0.055522	  0.290259	  0.058000	
15.1028	  0.052500	  0.286956	  0.059318	
15.1361	  0.050182	  0.283534	  0.061166	
15.1694	  0.049075	  0.279670	  0.063456	
15.2026	  0.049437	  0.275653	  0.066173	
15.2359	  0.051155	  0.271797	  0.069219	
15.2692	  0.053793	  0.268565	  0.071952	
15.3024	  0.056455	  0.266905	  0.073576	
15.3357	  0.058331	  0.266902	  0.074114	
15.369	  0.059254	  0.268435	  0.073990	
15.4022	  0.059402	  0.272680	  0.073420	
15.4355	  0.059458	  0.280385	  0.072223	
15.4687	  0.059915	  0.290708	  0.070368	
15.502	  0.060724	  0.301771	  0.068372	
15.5353	  0.061473	  0.312354	  0.066711	
15.5685	  0.062238	  0.321450	  0.065662	
15.6018	  0.063296	  0.327541	  0.065142	
15.6351	  0.064403	  0.329347	  0.065305	
15.6683	  0.064963	  0.327852	  0.066532	
15.7016	  0.064838	  0.324846	  0.068867	
15.7349	  0.064288	  0.319643	  0.071852	
15.7681	  0.063295	  0.310648	  0.074509	
15.8014	  0.062299	  0.298378	  0.075858	
15.8347	  0.062004	  0.285586	  0.075933	
15.8679	  0.062569	  0.273374	  0.075191	
15.9012	  0.063410	  0.261657	  0.074085	
15.9345	  0.063633	  0.251193	  0.072545	
15.9677	  0.062774	  0.243324	  0.070634	
16.001	  0.061156	  0.238438	  0.068863	
16.0343	  0.059730	  0.237049	  0.067598	
16.0675	  0.059177	  0.240299	  0.066994	
16.1008	  0.059818	  0.248043	  0.067001	
16.1341	  0.061548	  0.258197	  0.067395	
16.1673	  0.063771	  0.267774	  0.068071	
16.2006	  0.065444	  0.274764	  0.068912	
16.2339	  0.065825	  0.279605	  0.069609	
16.2671	  0.065404	  0.284331	  0.069813	
16.3004	  0.064986	  0.290812	  0.069506	
16.3337	  0.064959	  0.299199	  0.068891	
16.3669	  0.065252	  0.308009	  0.068351	
16.4002	  0.065300	  0.314939	  0.067917	
16.4335	  0.065098	  0.318218	  0.067583	
16.4667	  0.065077	  0.315808	  0.067614	
16.5	  0.065713	  0.308928	  0.068059	
16.5333	  0.067349	  0.300926	  0.068593	
16.5665	  0.070111	  0.295411	  0.068880	
16.5998	  0.073807	  0.294373	  0.069104	
16.6331	  0.078224	  0.297685	  0.069299	
16.6663	  0.082715	  0.304815	  0.069327	
16.6996	  0.086927	  0.315592	  0.069177	
16.7329	  0.090482	  0.329295	  0.068901	
16.7661	  0.094061	  0.344951	  0.068494	
16.7994	  0.097815	  0.360734	  0.067870	
16.8327	  0.101346	  0.372917	  0.067151	
16.8659	  0.103743	  0.378473	  0.067048	
16.8992	  0.104191	  0.379268	  0.068254	
16.9325	  0.103130	  0.379491	  0.070997	
16.9657	  0.101805	  0.381701	  0.075319	
16.999	  0.101351	  0.386530	  0.081261	
17.0323	  0.101888	  0.392930	  0.088603	
17.0655	  0.102892	  0.397587	  0.097018	
17.0988	  0.103472	  0.397069	  0.105919	
17.1321	  0.102935	  0.390335	  0.113792	
17.1653	  0.101116	  0.379064	  0.117989	
17.1986	  0.098319	  0.364980	  0.116570	
17.2319	  0.095814	  0.349625	  0.111755	
17.2651	  0.094899	  0.334946	  0.106717	
17.2984	  0.096029	  0.323222	  0.103627	
17.3317	  0.098328	  0.316306	  0.103617	
17.3649	  0.101212	  0.314828	  0.106311	
17.3982	  0.105381	  0.319644	  0.109972	
17.4315	  0.110944	  0.329177	  0.111554	
17.4647	  0.117261	  0.339924	  0.110106	
17.498	  0.123237	  0.349735	  0.108162	
17.5312	  0.128570	  0.359124	  0.107899	
